<?xml version="1.0" encoding="utf-8"?>
<!-- Generator: Adobe Illustrator 24.1.0, SVG Export Plug-In . SVG Version: 6.00 Build 0)  -->
<svg version="1.1" id="Warstwa_1" xmlns="http://www.w3.org/2000/svg" xmlns:xlink="http://www.w3.org/1999/xlink" x="0px" y="0px"
	 viewBox="0 0 635.7 415.3" style="enable-background:new 0 0 635.7 415.3;" xml:space="preserve">
<style type="text/css">
	.st0{fill:url(#SVGID_1_);}
	.st1{fill:#00506C;}
	.st2{fill:url(#SVGID_2_);}
	.st3{fill:#00B7B2;}
	.st4{fill:#00E5D2;}
	.st5{fill:#00D4BA;}
	.st6{fill:#0047C3;}
	.st7{fill:#0088DE;}
	.st8{fill:#2CC9C4;}
	.st9{fill:#27BEF3;}
	.st10{fill:#BAE8E2;}
	.st11{fill:#E7FFFF;}
	.st12{fill:#56B5B0;}
	.st13{fill:#92C4C4;}
	.st14{opacity:0.63;}
	.st15{fill:#FFFFFF;}
	.st16{opacity:0.4;}
	.st17{fill:url(#SVGID_3_);}
	.st18{fill:url(#SVGID_4_);}
</style>
<g>
	<linearGradient id="SVGID_1_" gradientUnits="userSpaceOnUse" x1="287.9412" y1="236.9053" x2="287.9412" y2="413.1844">
		<stop  offset="0" style="stop-color:#58B3FF"/>
		<stop  offset="1" style="stop-color:#9A79FF"/>
	</linearGradient>
	<path class="st0" d="M270.6,380.6c-10.5-0.9-21.3-5.3-27.3-13.9c-7.2-10.3-6.8-24.8-14.8-34.5c-11.4-13.7-37.2-15-40.3-32.6
		c-1.6-9.2,4.7-18,12.1-23.6c7.4-5.6,16.2-9.3,23.2-15.5c13.3-11.9,18.2-31.4,32.4-42.2c19.6-15,47.6-7.2,70.8,1.2
		c15,5.4,30.3,11.1,42.2,21.6c11.9,10.6,19.6,27.4,15,42.6c-2.2,7-6.8,13.7-6.1,21c0.7,6.5,5.4,11.7,8.1,17.6c8,18-5.8,39.7-24,47.4
		c-16.7,7-32,2.9-49.1,4.1C298.1,374.9,285.7,381.9,270.6,380.6z"/>
	<polygon class="st1" points="328.2,321.8 324.7,318.9 301.3,346.6 301.3,242.2 296.6,242.2 296.6,305.4 275.7,276.5 272,279.2 
		296.6,313.3 296.6,415.3 301.3,415.3 301.3,353.8 	"/>
</g>
<g>
	<linearGradient id="SVGID_2_" gradientUnits="userSpaceOnUse" x1="367.377" y1="116.7745" x2="367.377" y2="335.173">
		<stop  offset="0" style="stop-color:#58B3FF"/>
		<stop  offset="1" style="stop-color:#9A79FF"/>
	</linearGradient>
	<path class="st2" d="M333.9,290.1c-12-3.8-23-13.1-25.2-25.5c-1.6-9.2,1.6-19-1.8-27.7c-3.1-7.8-10.9-12.6-16.5-18.9
		c-15.2-17.1-10.7-47.7,8.9-59.6c10.6-6.5,24.2-8,32.7-16.9c7.8-8.2,9.3-20.4,14-30.8c6.2-13.7,19.5-24.6,34.5-25.6
		c15-1,30.6,9.6,33.1,24.5c1.3,7.5-0.7,15.3,0.4,22.9c2,13.8,13.5,24,23.3,34c9.8,10,19.1,23.5,15.2,36.9
		c-2.7,9.5-11.7,16.8-12.2,26.7c-0.5,8.2,5,15.5,6.8,23.5c3.8,16.9-10,33.7-26.4,39.5c-15.3,5.4-31.2,3.3-46.9,1.3
		C360.7,292.7,346.7,294.2,333.9,290.1z"/>
	<polygon class="st1" points="400.7,191.4 397,187.6 373.3,210.6 373.3,162 367.9,162 367.9,262.5 339.2,221.8 334.9,224.9 
		367.9,271.8 367.9,343.9 373.3,343.9 373.3,218.1 	"/>
</g>
<g>
	<g>
		<polygon class="st3" points="361,307.5 361,311.7 495.3,326.6 495.3,307.5 		"/>
		<polygon class="st4" points="361,415.3 495.3,415.3 495.3,326.6 361,311.7 		"/>
	</g>
	<rect x="518.2" y="191" class="st5" width="42.5" height="18.9"/>
	<rect x="545.2" y="191" class="st3" width="15.5" height="18.9"/>
	<g>
		<polygon class="st6" points="384.4,209.6 576.3,209.6 634.3,307.5 442.4,307.5 		"/>
	</g>
	<g>
		<polygon class="st7" points="613.1,307.5 566.9,226.1 520.7,307.5 495.3,307.5 495.3,326.6 613.1,392.1 		"/>
		<polygon class="st8" points="495.3,326.6 495.3,415.3 613.1,415.3 613.1,392.1 		"/>
	</g>
	<rect x="561.2" y="343.9" class="st6" width="43.2" height="71.4"/>
	<rect x="512.4" y="332.9" class="st6" width="41.2" height="45.6"/>
	<g>
		<polygon class="st9" points="576.3,209.6 384.4,209.6 328.7,307.5 520.7,307.5 		"/>
	</g>
	<g>
		<rect x="374.7" y="332.3" class="st10" width="108.5" height="38.9"/>
		<path class="st11" d="M371.4,329v45.6h115.2V329H371.4z M483.3,371.2H374.7v-38.9h108.5V371.2z"/>
	</g>
	<g>
		<path class="st6" d="M588.2,295c0-10.3-8.4-18.6-18.6-18.6c-10.3,0-18.6,8.4-18.6,18.6c0,10.3,8.4,18.6,18.6,18.6
			C579.8,313.6,588.2,305.2,588.2,295z"/>
		<path class="st6" d="M569.5,273.4c-11.9,0-21.6,9.7-21.6,21.6c0,11.9,9.7,21.6,21.6,21.6s21.6-9.7,21.6-21.6
			C591.1,283.1,581.4,273.4,569.5,273.4z M550.9,295c0-10.3,8.4-18.6,18.6-18.6c10.3,0,18.6,8.4,18.6,18.6
			c0,10.3-8.4,18.6-18.6,18.6C559.2,313.6,550.9,305.2,550.9,295z"/>
	</g>
	<g>
		<rect x="512.4" y="332.3" class="st12" width="34.5" height="38.9"/>
		<path class="st13" d="M509.1,329v45.6h41.2V329H509.1z M547,371.2h-34.5v-38.9H547V371.2z"/>
	</g>
	<g>
		<path class="st12" d="M584.2,291.1c0-10.3-8.4-18.6-18.6-18.6c-10.3,0-18.6,8.4-18.6,18.6c0,10.3,8.4,18.6,18.6,18.6
			C575.8,309.7,584.2,301.4,584.2,291.1z"/>
		<path class="st13" d="M565.5,269.5c-11.9,0-21.6,9.7-21.6,21.6c0,11.9,9.7,21.6,21.6,21.6s21.6-9.7,21.6-21.6
			C587.1,279.2,577.4,269.5,565.5,269.5z M546.9,291.1c0-10.3,8.4-18.6,18.6-18.6c10.3,0,18.6,8.4,18.6,18.6
			c0,10.3-8.4,18.6-18.6,18.6C555.3,309.7,546.9,301.4,546.9,291.1z"/>
	</g>
	<polygon class="st3" points="547.1,221.7 538.9,224.8 503.1,224.8 497.9,224.8 454.8,224.8 449.6,224.8 403.7,224.8 383.9,259.7 
		366.6,290.1 361,292.2 363.6,295.3 409.5,295.3 414.7,295.3 457.8,295.3 463,295.3 509.7,295.3 531,257.8 549.7,224.8 	"/>
	<g>
		<polygon class="st10" points="428.2,254.7 436.3,240.4 444.4,226.2 403.8,226.2 387.6,254.7 		"/>
		<polygon class="st10" points="385,259.2 368.9,287.6 409.5,287.6 417.6,273.4 425.6,259.2 		"/>
		<polygon class="st10" points="449.6,226.2 433.5,254.7 476.5,254.7 484.6,240.4 492.7,226.2 		"/>
		<polygon class="st10" points="497.9,226.2 481.8,254.7 523.2,254.7 539.3,226.2 		"/>
		<path class="st11" d="M547.1,221.7h-46.6h-5.2h-43.1H447h-45.8l-19.9,34.9L361,292.2h45.8h5.2h43.1h5.2h46.6l21.3-37.5l0,0
			L547.1,221.7z M457.8,287.6h-43.1l16.2-28.4H474L457.8,287.6z M409.5,287.6h-40.6l16.2-28.4h40.6l-8.1,14.2L409.5,287.6z
			 M444.4,226.2l-8.1,14.2l-8.1,14.2h-40.6l16.2-28.4H444.4z M484.6,240.4l-8.1,14.2h-43.1l16.2-28.4h43.1L484.6,240.4z
			 M481.8,254.7l16.2-28.4h41.4l-16.2,28.4H481.8z M471.1,273.4l8.1-14.2h41.4l-16.2,28.4H463L471.1,273.4z"/>
		<polygon class="st10" points="520.6,259.2 479.2,259.2 471.1,273.4 463,287.6 504.4,287.6 		"/>
		<polygon class="st10" points="430.9,259.2 414.7,287.6 457.8,287.6 474,259.2 		"/>
	</g>
	<g class="st14">
		<polygon class="st15" points="440.2,226.2 447.8,221.7 447,221.7 426.4,221.7 418.7,226.2 396.1,239.8 388.2,244.5 381.3,256.6 
			377.1,263.9 392.6,254.7 		"/>
		<polygon class="st15" points="516.8,259.2 469.1,287.6 461.5,292.2 483,292.2 507.1,292.2 519.4,270.4 528.4,254.7 530.4,251.1 		
			"/>
		<polygon class="st15" points="401.1,259.2 408.7,254.7 438.2,237 446.2,232.3 456.3,226.2 464,221.7 456.9,221.7 441.9,230.6 
			401.6,254.7 393.9,259.2 380.4,267.3 372.5,272 368.9,278.4 376.8,273.7 		"/>
		<polygon class="st15" points="437.2,254.7 484.8,226.2 492.5,221.7 488,221.7 480.3,226.2 433.9,254 425,259.2 377.4,287.6 
			369.8,292.2 374.3,292.2 381.9,287.6 423.6,262.8 		"/>
		<polygon class="st15" points="470.3,254.7 479.8,249 487.7,244.3 517.9,226.2 525.5,221.7 518.4,221.7 510.8,226.2 491.3,237.8 
			483.4,242.6 463.1,254.7 455.5,259.2 418.2,281.5 410.3,286.2 407.9,287.6 400.2,292.2 406.9,292.2 407.4,292.2 415,287.6 
			462.6,259.2 		"/>
	</g>
	<g class="st14">
		<polygon class="st15" points="404.7,332.3 410.2,329 393.4,329 387.8,332.3 374.7,340 371.4,342 371.4,352.1 374.7,350.1 		"/>
		<polygon class="st15" points="420.3,332.3 425.9,329 419.2,329 413.6,332.3 374.7,355.4 371.4,357.4 371.4,361.4 374.7,359.4 		
			"/>
		<polygon class="st15" points="453.3,329 449.5,329 443.9,332.3 378.6,371.2 373,374.5 376.7,374.5 382.3,371.2 447.7,332.3 		"/>
		<polygon class="st15" points="483.3,340.2 431.1,371.2 425.6,374.5 456,374.5 461.6,371.2 483.3,358.3 486.6,356.3 486.6,338.2 		
			"/>
	</g>
	<g class="st16">
		<path class="st15" d="M576.3,275.9l2.7-1.6c-2.3-1.9-5-3.3-8-4l-3.8,2.3l-18.8,11.2l-3.8,2.3c-0.4,1.6-0.6,3.3-0.6,5.1
			c0,1.3,0.1,2.6,0.4,3.9l2.7-1.6L576.3,275.9z"/>
		<path class="st15" d="M582,277.2l-2.6,1.5L548,297.4l-2.5,1.5c0.4,0.9,0.8,1.9,1.3,2.7l2.5-1.5l32-19l2.5-1.5
			C583.2,278.8,582.6,278,582,277.2z"/>
	</g>
	<g class="st16">
		<polygon class="st15" points="547,334.5 512.4,355 509.1,357 509.1,361 512.4,359 547,338.4 550.3,336.5 550.3,332.5 		"/>
		<polygon class="st15" points="515.6,371.2 510,374.5 513.7,374.5 519.3,371.2 547,354.7 550.3,352.8 550.3,350.5 547,352.5 		"/>
	</g>
	<g>
		<path class="st6" d="M584,366.3c3.1,6,6.1,12,8.8,18.2c3.5,7.9,6.6,15.9,9.1,24.1v-37.5C596,369.4,590,367.8,584,366.3z"/>
		<path class="st6" d="M602,371.1v-24h-28.5c3.6,6.4,7.2,12.8,10.5,19.2C590,367.8,596,369.4,602,371.1z"/>
		<path class="st6" d="M573.4,347h-9.9v14.6c6.8,1.4,13.7,2.9,20.4,4.6C580.6,359.8,577.1,353.4,573.4,347z"/>
		<path class="st7" d="M584,366.3c-6.8-1.7-13.6-3.2-20.4-4.6v53.7H602v-6.7c-2.6-8.2-5.7-16.3-9.1-24.1
			C590.1,378.3,587.1,372.3,584,366.3z"/>
	</g>
</g>
<g>
	<linearGradient id="SVGID_3_" gradientUnits="userSpaceOnUse" x1="384.3849" y1="378.8492" x2="384.3849" y2="431.0488">
		<stop  offset="0" style="stop-color:#58B3FF"/>
		<stop  offset="1" style="stop-color:#9A79FF"/>
	</linearGradient>
	<path class="st17" d="M440.8,415.3H332.5c-3.6-2.8-7.2-6.6-9.1-10.7c-1.8-4.1-1.8-9.2,1.1-12.7c2.1-2.6,5.4-4,8-6.2
		c3.6-3.1,5.5-7.5,8.2-11.3c2.7-3.9,6.7-7.5,11.6-7.3c3.8,0.1,7.2,2.6,11.1,2.9c5.7,0.5,10.5-3.6,15.7-5.9c8.7-3.9,19-2.7,28.3-0.2
		c14.5,3.9,28.8,11.4,36.3,23.8C448.8,396.3,447,407.3,440.8,415.3z"/>
</g>
<g>
	<g>
		<path class="st5" d="M255.8,405.9c-1.9-3.4-5.6-5.5-9.1-7.1c-4.3-1.9-8.9-3.3-13.6-4.2c-12.7,3.1-21.7,10.4-21.7,15.5v2.5
			c0,1.5,1.2,2.8,2.8,2.8h42.8C257.5,412.1,257.4,408.7,255.8,405.9z"/>
		<path class="st3" d="M244.8,393.1c-4.1,0-8.1,0.5-11.7,1.4c4.7,0.9,9.2,2.3,13.6,4.2c3.6,1.6,7.2,3.7,9.1,7.1
			c1.6,2.8,1.7,6.2,1.1,9.4h18.6c1.5,0,2.8-1.2,2.8-2.8V410C278.3,403.5,263.3,393.1,244.8,393.1z"/>
	</g>
	<g>
		<polygon class="st7" points="352.8,286.4 191.1,286.4 144.3,368.8 305.9,368.8 		"/>
		<polygon class="st6" points="352.8,286.4 305.9,368.8 144.3,368.8 146.5,373.3 308.2,373.3 355.1,290.8 		"/>
	</g>
	<g>
		<polygon class="st10" points="223,325.2 231.4,310.6 239.7,296 197.9,296 181.2,325.2 		"/>
		<polygon class="st10" points="178.6,329.9 161.9,359.2 203.7,359.2 212.1,344.6 220.4,329.9 		"/>
		<polygon class="st10" points="245.1,296 228.4,325.2 272.8,325.2 281.1,310.6 289.4,296 		"/>
		<polygon class="st10" points="294.8,296 278.2,325.2 320.8,325.2 337.4,296 		"/>
		<path class="st11" d="M345.5,291.3h-48h-5.4h-44.4h-5.4h-47.2l-20.4,36l-20.8,36.6h47.2h5.4h44.4h5.4h48l22-38.6l0,0L345.5,291.3z
			 M253.5,359.2h-44.4l16.6-29.3h44.4L253.5,359.2z M203.7,359.2h-41.8l16.6-29.3h41.8l-8.3,14.6L203.7,359.2z M239.7,296l-8.3,14.6
			l-8.3,14.6h-41.8l16.6-29.3H239.7z M281.1,310.6l-8.3,14.6h-44.4l16.6-29.3h44.4L281.1,310.6z M278.2,325.2l16.6-29.3h42.6
			l-16.6,29.3H278.2z M267.2,344.6l8.3-14.6h42.6l-16.6,29.3h-42.6L267.2,344.6z"/>
		<polygon class="st10" points="318.1,329.9 275.5,329.9 267.2,344.6 258.9,359.2 301.5,359.2 		"/>
		<polygon class="st10" points="225.8,329.9 209.1,359.2 253.5,359.2 270.1,329.9 		"/>
	</g>
	<g class="st14">
		<polygon class="st15" points="235.4,296 243.2,291.3 242.3,291.3 221.1,291.3 213.3,296 190,309.9 181.8,314.8 174.7,327.2 
			170.5,334.7 186.3,325.2 		"/>
		<polygon class="st15" points="314.2,329.9 265.1,359.2 257.3,363.9 279.4,363.9 304.2,363.9 316.9,341.5 326.2,325.2 328.3,321.5 
					"/>
		<polygon class="st15" points="195.1,329.9 202.9,325.2 233.4,307.1 241.5,302.2 252,296 259.8,291.3 252.5,291.3 237.1,300.5 
			195.6,325.2 187.8,329.9 173.9,338.2 165.7,343.1 161.9,349.7 170.1,344.8 		"/>
		<polygon class="st15" points="232.3,325.2 281.3,296 289.2,291.3 284.5,291.3 276.7,296 228.8,324.5 219.8,329.9 170.7,359.2 
			162.9,363.9 167.5,363.9 175.4,359.2 218.3,333.6 		"/>
		<polygon class="st15" points="266.3,325.2 276.1,319.4 284.3,314.5 315.4,296 323.2,291.3 315.9,291.3 308.1,296 288,307.9 
			279.9,312.8 259,325.2 251.1,329.9 212.7,352.9 204.6,357.7 202.1,359.2 194.2,363.9 201.1,363.9 201.6,363.9 209.4,359.2 
			258.5,329.9 		"/>
	</g>
	<g>
		<path class="st3" d="M256,373.3h-22.4v2.5c7.6,2.6,15,5.5,22.4,8.6V373.3z"/>
		<path class="st4" d="M233.6,375.8v21.4c0,3,5,5.5,11.2,5.5c6.2,0,11.2-2.4,11.2-5.5v-12.8C248.7,381.3,241.2,378.4,233.6,375.8z"
			/>
	</g>
</g>
<g>
	<g>
		<path class="st5" d="M123.8,390.7c-2.1-3.8-6.2-6.1-10.2-7.9c-4.8-2.1-9.9-3.7-15.1-4.7c-14.1,3.4-24.1,11.6-24.1,17.2v2.8
			c0,1.7,1.4,3.1,3.1,3.1h47.5C125.8,397.6,125.6,393.8,123.8,390.7z"/>
		<path class="st3" d="M111.7,376.5c-4.6,0-9,0.6-13,1.6c5.2,1,10.2,2.6,15.1,4.7c4,1.8,8,4.1,10.2,7.9c1.7,3.1,1.9,6.9,1.2,10.5
			h20.7c1.7,0,3.1-1.4,3.1-3.1v-2.8C148.8,388,132.2,376.5,111.7,376.5z"/>
	</g>
	<g>
		<polygon class="st7" points="231.6,258 52.1,258 0,349.5 179.5,349.5 		"/>
		<polygon class="st6" points="231.6,258 179.5,349.5 0,349.5 2.5,354.5 182,354.5 234.1,262.9 		"/>
	</g>
	<g>
		<polygon class="st10" points="87.5,301.1 96.7,284.9 105.9,268.7 59.5,268.7 41,301.1 		"/>
		<polygon class="st10" points="38.1,306.4 19.6,338.8 66,338.8 75.3,322.6 84.5,306.4 		"/>
		<polygon class="st10" points="111.9,268.7 93.4,301.1 142.7,301.1 151.9,284.9 161.2,268.7 		"/>
		<polygon class="st10" points="167.2,268.7 148.7,301.1 196,301.1 214.5,268.7 		"/>
		<path class="st11" d="M223.4,263.5h-53.3h-6h-49.2h-6H56.5l-22.7,39.9L10.7,344h52.4h6h49.2h6h53.3l24.4-42.9l0,0L223.4,263.5z
			 M121.3,338.8H72l18.5-32.5h49.2L121.3,338.8z M66,338.8H19.6l18.5-32.5h46.4l-9.2,16.2L66,338.8z M105.9,268.7l-9.2,16.2
			l-9.2,16.2H41l18.5-32.5H105.9z M151.9,284.9l-9.2,16.2H93.4l18.5-32.5h49.2L151.9,284.9z M148.7,301.1l18.5-32.5h47.3L196,301.1
			H148.7z M136.5,322.6l9.2-16.2H193l-18.5,32.5h-47.3L136.5,322.6z"/>
		<polygon class="st10" points="193,306.4 145.7,306.4 136.5,322.6 127.2,338.8 174.6,338.8 		"/>
		<polygon class="st10" points="90.5,306.4 72,338.8 121.3,338.8 139.7,306.4 		"/>
	</g>
	<g class="st14">
		<polygon class="st15" points="101.2,268.7 109.9,263.5 108.9,263.5 85.4,263.5 76.6,268.7 50.7,284.1 41.7,289.5 33.8,303.4 
			29.1,311.7 46.7,301.1 		"/>
		<polygon class="st15" points="188.7,306.4 134.2,338.8 125.5,344 150,344 177.6,344 191.7,319.2 202,301.1 204.3,297 		"/>
		<polygon class="st15" points="56.4,306.4 65.1,301.1 98.9,281 108,275.6 119.6,268.7 128.3,263.5 120.2,263.5 103.1,273.6 
			57,301.1 48.3,306.4 32.9,315.6 23.8,321 19.6,328.3 28.7,322.9 		"/>
		<polygon class="st15" points="97.7,301.1 152.2,268.7 160.9,263.5 155.7,263.5 147,268.7 93.9,300.3 83.8,306.4 29.4,338.8 
			20.7,344 25.8,344 34.5,338.8 82.2,310.4 		"/>
		<polygon class="st15" points="135.5,301.1 146.4,294.7 155.4,289.3 190,268.7 198.7,263.5 190.6,263.5 181.9,268.7 159.6,281.9 
			150.6,287.3 127.4,301.1 118.7,306.4 76,331.8 67,337.2 64.2,338.8 55.5,344 63.1,344 63.6,344 72.3,338.8 126.8,306.4 		"/>
	</g>
	<g>
		<path class="st3" d="M124.1,354.5H99.2v2.8c8.4,2.9,16.7,6.1,24.8,9.5V354.5z"/>
		<path class="st4" d="M99.2,357.3V381c0,3.3,5.6,6.1,12.4,6.1c6.9,0,12.4-2.7,12.4-6.1v-14.2C115.9,363.4,107.6,360.2,99.2,357.3z"
			/>
	</g>
</g>
<g>
	<linearGradient id="SVGID_4_" gradientUnits="userSpaceOnUse" x1="101.2527" y1="380.3742" x2="101.2527" y2="430.3901">
		<stop  offset="0" style="stop-color:#58B3FF"/>
		<stop  offset="1" style="stop-color:#9A79FF"/>
	</linearGradient>
	<path class="st18" d="M162.3,415.3H45.1c-3.9-2.7-7.8-6.3-9.8-10.2c-2-3.9-2-8.8,1.1-12.1c2.3-2.5,5.9-3.8,8.6-5.9
		c3.9-3,6-7.2,8.9-10.9c2.9-3.7,7.3-7.2,12.5-7c4.2,0.1,7.8,2.5,12,2.8c6.1,0.5,11.4-3.4,17-5.6c9.4-3.7,20.6-2.6,30.6-0.2
		c15.7,3.8,31.1,10.9,39.3,22.8C170.9,397.1,169,407.6,162.3,415.3z"/>
</g>
</svg>
