<?xml version="1.0" encoding="utf-8"?>
<!-- Generator: Adobe Illustrator 24.1.0, SVG Export Plug-In . SVG Version: 6.00 Build 0)  -->
<svg version="1.1" id="OBJECTS" xmlns="http://www.w3.org/2000/svg" xmlns:xlink="http://www.w3.org/1999/xlink" x="0px" y="0px"
	 viewBox="0 0 223.8 187.9" style="enable-background:new 0 0 223.8 187.9;" xml:space="preserve">
<style type="text/css">
	.st0{fill:#F0F0F0;}
	.st1{clip-path:url(#SVGID_2_);}
	.st2{fill:url(#SVGID_3_);}
	.st3{fill:url(#SVGID_4_);}
	.st4{clip-path:url(#SVGID_6_);}
	.st5{fill:url(#SVGID_7_);}
	.st6{fill:url(#SVGID_8_);}
	.st7{fill:#00506C;}
	.st8{fill:url(#SVGID_9_);}
	.st9{fill:#00D4BA;}
	.st10{fill:#00B7B2;}
	.st11{fill:#0088DE;}
	.st12{fill:#0047C3;}
	.st13{fill:#BAE8E2;}
	.st14{fill:#E7FFFF;}
	.st15{opacity:0.63;}
	.st16{fill:#FFFFFF;}
	.st17{fill:#00E5D2;}
	.st18{fill:url(#SVGID_10_);}
</style>
<path class="st0" d="M142.2,78.9c-34.5-20.8-50.8-84.9-104-46.6S7,149.2,58,168.2s116.7,8.3,135.1-27
	C224.7,80.8,165.3,92.9,142.2,78.9z"/>
<path class="st0" d="M142.2,78.9c-34.5-20.8-50.8-84.9-104-46.6S7,149.2,58,168.2s116.7,8.3,135.1-27
	C224.7,80.8,165.3,92.9,142.2,78.9z"/>
<g>
	<defs>
		<path id="SVGID_1_" d="M142.2,78.9c-34.5-20.8-50.8-84.9-104-46.6S7,149.2,58,168.2s116.7,8.3,135.1-27
			C224.7,80.8,165.3,92.9,142.2,78.9z"/>
	</defs>
	<clipPath id="SVGID_2_">
		<use xlink:href="#SVGID_1_"  style="overflow:visible;"/>
	</clipPath>
	<g class="st1">
		<path class="st0" d="M2.3,153c0,0,29.4-29.5,78.5-15.5s78,2,71.9-72.2c0,0,69,9.6,60.2,58.7C202.2,183.6,63.5,206.3,2.3,153z"/>
	</g>
</g>
<linearGradient id="SVGID_3_" gradientUnits="userSpaceOnUse" x1="11.0852" y1="94.3766" x2="205.8283" y2="94.3766" gradientTransform="matrix(1 0 0 -1 0 189.3228)">
	<stop  offset="0" style="stop-color:#00BFC2"/>
	<stop  offset="0.246" style="stop-color:#00BBC5"/>
	<stop  offset="0.49" style="stop-color:#00AFCF"/>
	<stop  offset="0.732" style="stop-color:#009BDF"/>
	<stop  offset="0.972" style="stop-color:#0080F5"/>
	<stop  offset="1" style="stop-color:#007CF8"/>
</linearGradient>
<path class="st2" d="M145.8,74.9C111.3,54.1,95-9.9,41.8,28.3S10.6,145.2,61.7,164.2s116.7,8.3,135.1-27
	C228.4,76.8,168.9,88.9,145.8,74.9z"/>
<linearGradient id="SVGID_4_" gradientUnits="userSpaceOnUse" x1="11.0852" y1="94.3766" x2="205.8283" y2="94.3766" gradientTransform="matrix(1 0 0 -1 0 189.3228)">
	<stop  offset="0" style="stop-color:#F6C234"/>
	<stop  offset="0.489" style="stop-color:#F6C232"/>
	<stop  offset="0.665" style="stop-color:#F6C02D"/>
	<stop  offset="0.79" style="stop-color:#F5BE24"/>
	<stop  offset="0.892" style="stop-color:#F5B916"/>
	<stop  offset="0.978" style="stop-color:#FF9F05"/>
	<stop  offset="1" style="stop-color:#FF9D00"/>
</linearGradient>
<path class="st3" d="M145.8,74.9C111.3,54.1,95-9.9,41.8,28.3S10.6,145.2,61.7,164.2s116.7,8.3,135.1-27
	C228.4,76.8,168.9,88.9,145.8,74.9z"/>
<g>
	<defs>
		<path id="SVGID_5_" d="M145.8,74.9C111.3,54.1,95-9.9,41.8,28.3S10.6,145.2,61.7,164.2s116.7,8.3,135.1-27
			C228.4,76.8,168.9,88.9,145.8,74.9z"/>
	</defs>
	<clipPath id="SVGID_6_">
		<use xlink:href="#SVGID_5_"  style="overflow:visible;"/>
	</clipPath>
	<g class="st4">
		
			<linearGradient id="SVGID_7_" gradientUnits="userSpaceOnUse" x1="5.9" y1="69.131" x2="217.3558" y2="69.131" gradientTransform="matrix(1 0 0 -1 0 189.3228)">
			<stop  offset="0" style="stop-color:#F6C234"/>
			<stop  offset="0.489" style="stop-color:#F6C232"/>
			<stop  offset="0.665" style="stop-color:#F6C02D"/>
			<stop  offset="0.79" style="stop-color:#F5BE24"/>
			<stop  offset="0.892" style="stop-color:#F5B916"/>
			<stop  offset="0.978" style="stop-color:#FF9F05"/>
			<stop  offset="1" style="stop-color:#FF9D00"/>
		</linearGradient>
		<path class="st5" d="M5.9,149c0,0,29.4-29.5,78.5-15.5s78,2,71.9-72.2c0,0,69,9.6,60.2,58.7C205.8,179.6,67.2,202.3,5.9,149z"/>
	</g>
</g>
<g>
	<linearGradient id="SVGID_8_" gradientUnits="userSpaceOnUse" x1="24.7787" y1="150.9935" x2="24.7787" y2="187.5012">
		<stop  offset="0" style="stop-color:#58B3FF"/>
		<stop  offset="1" style="stop-color:#9A79FF"/>
	</linearGradient>
	<path class="st6" d="M21.2,180.8c-2.2-0.2-4.4-1.1-5.7-2.9c-1.5-2.1-1.4-5.1-3.1-7.1c-2.4-2.8-7.7-3.1-8.3-6.7
		c-0.3-1.9,1-3.7,2.5-4.9c1.5-1.2,3.4-1.9,4.8-3.2c2.8-2.5,3.8-6.5,6.7-8.7c4.1-3.1,9.9-1.5,14.7,0.3c3.1,1.1,6.3,2.3,8.7,4.5
		c2.5,2.2,4.1,5.7,3.1,8.8c-0.4,1.5-1.4,2.8-1.3,4.3c0.1,1.3,1.1,2.4,1.7,3.6c1.7,3.7-1.2,8.2-5,9.8c-3.5,1.5-6.6,0.6-10.2,0.8
		C26.9,179.6,24.3,181,21.2,180.8z"/>
	<polygon class="st7" points="33.1,168.6 32.4,168 27.5,173.7 27.5,152.1 26.6,152.1 26.6,165.2 22.2,159.2 21.5,159.8 26.6,166.8 
		26.6,187.9 27.5,187.9 27.5,175.2 	"/>
</g>
<g>
	
		<linearGradient id="SVGID_9_" gradientUnits="userSpaceOnUse" x1="-82.4246" y1="63.3219" x2="-82.4246" y2="183.1382" gradientTransform="matrix(-1 0 0 1 90.8031 0)">
		<stop  offset="0" style="stop-color:#58B3FF"/>
		<stop  offset="1" style="stop-color:#9A79FF"/>
	</linearGradient>
	<path class="st8" d="M191.6,158.4c6.6-2.1,12.6-7.2,13.8-14c0.9-5-0.9-10.4,1-15.2c1.7-4.3,6-6.9,9.1-10.4
		c8.3-9.4,5.8-26.1-4.9-32.7c-5.8-3.5-13.3-4.4-18-9.3c-4.3-4.5-5.1-11.2-7.7-16.9c-3.4-7.5-10.7-13.5-18.9-14
		c-8.2-0.5-16.8,5.3-18.2,13.4c-0.7,4.1,0.4,8.4-0.2,12.5c-1.1,7.6-7.4,13.1-12.8,18.6c-5.4,5.5-10.5,12.9-8.3,20.3
		c1.5,5.2,6.4,9.2,6.7,14.7c0.3,4.5-2.7,8.5-3.7,12.9c-2.1,9.3,5.5,18.5,14.5,21.7c8.4,3,17.1,1.8,25.8,0.7
		C176.9,159.8,184.6,160.6,191.6,158.4z"/>
	<polygon class="st7" points="154.9,104.3 157,102.2 170,114.8 170,88.1 172.9,88.1 172.9,143.3 188.7,120.9 191.1,122.6 
		172.9,148.4 172.9,187.9 170,187.9 170,118.9 	"/>
</g>
<g>
	<g>
		<path class="st9" d="M153.6,183.6c-0.9-1.6-2.6-2.5-4.2-3.3c-2-0.9-4.1-1.5-6.2-1.9c-5.8,1.4-10,4.8-10,7.1v1.1
			c0,0.7,0.6,1.3,1.3,1.3h19.7C154.4,186.5,154.3,184.9,153.6,183.6z"/>
		<path class="st10" d="M148.6,177.7c-1.9,0-3.7,0.2-5.4,0.7c2.1,0.4,4.2,1.1,6.2,1.9c1.7,0.7,3.3,1.7,4.2,3.3
			c0.7,1.3,0.8,2.9,0.5,4.3h8.6c0.7,0,1.3-0.6,1.3-1.3v-1.1C164,182.5,157.1,177.7,148.6,177.7z"/>
	</g>
	<g>
		<polygon class="st11" points="198.2,128.6 123.9,128.6 102.3,166.6 176.7,166.6 		"/>
		<polygon class="st12" points="198.2,128.6 176.7,166.6 102.3,166.6 103.4,168.6 177.7,168.6 199.3,130.7 		"/>
	</g>
	<g>
		<polygon class="st13" points="138.6,146.5 142.4,139.8 146.2,133.1 127,133.1 119.3,146.5 		"/>
		<polygon class="st13" points="118.1,148.7 110.5,162.1 129.7,162.1 133.5,155.4 137.3,148.7 		"/>
		<polygon class="st13" points="148.7,133.1 141,146.5 161.4,146.5 165.3,139.8 169.1,133.1 		"/>
		<polygon class="st13" points="171.6,133.1 163.9,146.5 183.5,146.5 191.2,133.1 		"/>
		<path class="st14" d="M194.9,130.9h-22.1h-2.5h-20.4h-2.5h-21.7l-9.4,16.5l-9.6,16.8h21.7h2.5h20.4h2.5h22.1l10.1-17.8l0,0
			L194.9,130.9z M152.6,162.1h-20.4l7.7-13.5h20.4L152.6,162.1z M129.7,162.1h-19.2l7.7-13.5h19.2l-3.8,6.7L129.7,162.1z
			 M146.2,133.1l-3.8,6.7l-3.8,6.7h-19.2l7.7-13.5H146.2z M165.3,139.8l-3.8,6.7H141l7.7-13.5h20.4L165.3,139.8z M163.9,146.5
			l7.7-13.5h19.6l-7.7,13.5H163.9z M158.9,155.4l3.8-6.7h19.6l-7.7,13.5H155L158.9,155.4z"/>
		<polygon class="st13" points="182.3,148.7 162.7,148.7 158.9,155.4 155,162.1 174.6,162.1 		"/>
		<polygon class="st13" points="139.8,148.7 132.2,162.1 152.6,162.1 160.2,148.7 		"/>
	</g>
	<g class="st15">
		<polygon class="st16" points="144.2,133.1 147.8,130.9 147.4,130.9 137.7,130.9 134.1,133.1 123.3,139.5 119.6,141.7 116.3,147.5 
			114.4,150.9 121.7,146.5 		"/>
		<polygon class="st16" points="180.5,148.7 157.9,162.1 154.3,164.3 164.5,164.3 175.9,164.3 181.7,154 186,146.5 187,144.8 		"/>
		<polygon class="st16" points="125.7,148.7 129.3,146.5 143.3,138.2 147.1,135.9 151.9,133.1 155.5,130.9 152.1,130.9 145,135.1 
			125.9,146.5 122.3,148.7 115.9,152.5 112.2,154.7 110.5,157.8 114.2,155.5 		"/>
		<polygon class="st16" points="142.8,146.5 165.4,133.1 169,130.9 166.8,130.9 163.2,133.1 141.2,146.2 137.1,148.7 114.5,162.1 
			110.9,164.3 113,164.3 116.6,162.1 136.4,150.4 		"/>
		<polygon class="st16" points="158.5,146.5 163,143.8 166.7,141.6 181,133.1 184.6,130.9 181.3,130.9 177.7,133.1 168.4,138.6 
			164.7,140.8 155.1,146.5 151.5,148.7 133.8,159.2 130.1,161.5 128.9,162.1 125.3,164.3 128.5,164.3 128.7,164.3 132.3,162.1 
			154.8,148.7 		"/>
	</g>
	<g>
		<path class="st10" d="M153.7,168.6h-10.3v1.2c3.5,1.2,6.9,2.5,10.3,3.9V168.6z"/>
		<path class="st17" d="M143.4,169.8v9.8c0,1.4,2.3,2.5,5.1,2.5c2.8,0,5.1-1.1,5.1-2.5v-5.9C150.3,172.3,146.9,171,143.4,169.8z"/>
	</g>
</g>
<g>
	<g>
		<path class="st9" d="M90.9,182.8c-1-1.9-3-3-5-3.9c-2.4-1-4.9-1.8-7.4-2.3c-7,1.7-11.9,5.7-11.9,8.5v1.4c0,0.8,0.7,1.5,1.5,1.5
			h23.5C91.8,186.2,91.7,184.3,90.9,182.8z"/>
		<path class="st10" d="M84.8,175.8c-2.3,0-4.4,0.3-6.4,0.8c2.6,0.5,5.1,1.3,7.4,2.3c2,0.9,4,2,5,3.9c0.9,1.5,1,3.4,0.6,5.2h10.2
			c0.8,0,1.5-0.7,1.5-1.5v-1.4C103.2,181.5,95,175.8,84.8,175.8z"/>
	</g>
	<g>
		<polygon class="st11" points="144,117.3 55.4,117.3 29.7,162.5 118.3,162.5 		"/>
		<polygon class="st12" points="144,117.3 118.3,162.5 29.7,162.5 31,164.9 119.6,164.9 145.3,119.7 		"/>
	</g>
	<g>
		<polygon class="st13" points="72.9,138.6 77.5,130.6 82,122.6 59.1,122.6 50,138.6 		"/>
		<polygon class="st13" points="48.5,141.2 39.4,157.2 62.3,157.2 66.9,149.2 71.5,141.2 		"/>
		<polygon class="st13" points="85,122.6 75.9,138.6 100.2,138.6 104.7,130.6 109.3,122.6 		"/>
		<polygon class="st13" points="112.2,122.6 103.1,138.6 126.5,138.6 135.6,122.6 		"/>
		<path class="st14" d="M140,120h-26.3h-3H86.4h-3H57.6l-11.2,19.7L35,159.8h25.9h3h24.3h3h26.3l12-21.2l0,0L140,120z M89.6,157.2
			H65.3l9.1-16h24.3L89.6,157.2z M62.3,157.2H39.4l9.1-16h22.9l-4.6,8L62.3,157.2z M82,122.6l-4.6,8l-4.6,8H50l9.1-16H82z
			 M104.7,130.6l-4.6,8H75.9l9.1-16h24.3L104.7,130.6z M103.1,138.6l9.1-16h23.3l-9.1,16H103.1z M97.1,149.2l4.6-8H125l-9.1,16H92.5
			L97.1,149.2z"/>
		<polygon class="st13" points="125,141.2 101.7,141.2 97.1,149.2 92.5,157.2 115.9,157.2 		"/>
		<polygon class="st13" points="74.4,141.2 65.3,157.2 89.6,157.2 98.7,141.2 		"/>
	</g>
	<g class="st15">
		<polygon class="st16" points="79.7,122.6 84,120 83.5,120 71.9,120 67.6,122.6 54.8,130.2 50.3,132.9 46.4,139.7 44.1,143.8 
			52.8,138.6 		"/>
		<polygon class="st16" points="122.9,141.2 96,157.2 91.7,159.8 103.8,159.8 117.4,159.8 124.4,147.5 129.4,138.6 130.6,136.6 		
			"/>
		<polygon class="st16" points="57.6,141.2 61.9,138.6 78.6,128.6 83,126 88.8,122.6 93.1,120 89.1,120 80.6,125 57.9,138.6 
			53.6,141.2 46,145.7 41.5,148.4 39.4,152 43.9,149.3 		"/>
		<polygon class="st16" points="78,138.6 104.9,122.6 109.2,120 106.6,120 102.3,122.6 76.1,138.2 71.1,141.2 44.2,157.2 
			39.9,159.8 42.5,159.8 46.8,157.2 70.3,143.2 		"/>
		<polygon class="st16" points="96.6,138.6 102,135.4 106.5,132.7 123.5,122.6 127.8,120 123.8,120 119.5,122.6 108.5,129.1 
			104,131.8 92.6,138.6 88.3,141.2 67.3,153.7 62.8,156.4 61.4,157.2 57.1,159.8 60.9,159.8 61.1,159.8 65.4,157.2 92.3,141.2 		"/>
	</g>
	<g>
		<path class="st10" d="M91,164.9H78.7v1.4c4.1,1.4,8.2,3,12.2,4.7V164.9z"/>
		<path class="st17" d="M78.7,166.3V178c0,1.7,2.7,3,6.1,3c3.4,0,6.1-1.3,6.1-3v-7C86.9,169.3,82.9,167.7,78.7,166.3z"/>
	</g>
</g>
<g>
	<linearGradient id="SVGID_10_" gradientUnits="userSpaceOnUse" x1="198.9092" y1="177.2279" x2="198.9092" y2="192.5669">
		<stop  offset="0" style="stop-color:#58B3FF"/>
		<stop  offset="1" style="stop-color:#9A79FF"/>
	</linearGradient>
	<path class="st18" d="M217.6,187.9h-35.9c-1.2-0.8-2.4-1.9-3-3.1c-0.6-1.2-0.6-2.7,0.3-3.7c0.7-0.8,1.8-1.2,2.6-1.8
		c1.2-0.9,1.8-2.2,2.7-3.3c0.9-1.1,2.2-2.2,3.8-2.2c1.3,0,2.4,0.8,3.7,0.9c1.9,0.2,3.5-1,5.2-1.7c2.9-1.1,6.3-0.8,9.4,0
		c4.8,1.2,9.5,3.3,12,7C220.3,182.4,219.7,185.6,217.6,187.9z"/>
</g>
</svg>
