<?xml version="1.0" encoding="utf-8"?>
<!-- Generator: Adobe Illustrator 24.1.0, SVG Export Plug-In . SVG Version: 6.00 Build 0)  -->
<svg version="1.1" id="Layer_3" xmlns="http://www.w3.org/2000/svg" xmlns:xlink="http://www.w3.org/1999/xlink" x="0px" y="0px"
	 viewBox="0 0 151.7 41.6" style="enable-background:new 0 0 151.7 41.6;" xml:space="preserve">
<style type="text/css">
	.st0{fill:#F8B133;}
	.st1{fill:#1D70B7;}
	.st2{fill:#1D1D1B;}
</style>
<g>
	<g>
		<polygon class="st0" points="20.8,5.9 16.7,1.8 18.4,0.1 20.8,2.5 23.2,0.1 24.9,1.8 		"/>
		<polygon class="st0" points="23.2,41.5 20.8,39.1 18.4,41.5 16.7,39.8 20.8,35.7 24.9,39.8 		"/>
		<polygon class="st0" points="1.8,24.9 0.1,23.2 2.5,20.8 0.1,18.4 1.8,16.7 5.9,20.8 		"/>
		<polygon class="st0" points="39.8,24.9 35.7,20.8 39.8,16.7 41.5,18.4 39.1,20.8 41.5,23.2 		"/>
		<polygon class="st0" points="10.3,10.3 4.5,10.3 4.5,7.8 7.8,7.8 7.8,4.5 10.3,4.5 		"/>
		<polygon class="st1" points="2.4,10.4 0,10.4 0,0 10.4,0 10.4,2.4 2.4,2.4 		"/>
		<polygon class="st0" points="33.8,37.1 31.3,37.1 31.3,31.3 37.1,31.3 37.1,33.8 33.8,33.8 		"/>
		<polygon class="st1" points="41.6,41.6 31.2,41.6 31.2,39.2 39.2,39.2 39.2,31.2 41.6,31.2 		"/>
		<polygon class="st0" points="10.3,37.1 7.8,37.1 7.8,33.8 4.5,33.8 4.5,31.3 10.3,31.3 		"/>
		<polygon class="st1" points="10.4,41.6 0,41.6 0,31.2 2.4,31.2 2.4,39.2 10.4,39.2 		"/>
		<polygon class="st0" points="37.1,10.3 31.3,10.3 31.3,4.5 33.8,4.5 33.8,7.8 37.1,7.8 		"/>
		<polygon class="st1" points="41.6,10.4 39.2,10.4 39.2,2.4 31.2,2.4 31.2,0 41.6,0 		"/>
		<path class="st0" d="M20.8,33.5c-7,0-12.7-5.7-12.7-12.7S13.8,8.1,20.8,8.1s12.7,5.7,12.7,12.7S27.8,33.5,20.8,33.5z M20.8,10.5
			c-5.7,0-10.3,4.6-10.3,10.3c0,5.7,4.6,10.3,10.3,10.3s10.3-4.6,10.3-10.3C31.1,15.1,26.5,10.5,20.8,10.5z"/>
		<path class="st0" d="M20.8,27.8c-3.8,0-7-3.1-7-7c0-3.8,3.1-7,7-7s7,3.1,7,7C27.8,24.6,24.6,27.8,20.8,27.8z M20.8,16.3
			c-2.5,0-4.5,2-4.5,4.5s2,4.5,4.5,4.5s4.5-2,4.5-4.5S23.3,16.3,20.8,16.3z"/>
	</g>
	<g>
		<g>
			<g>
				<path class="st2" d="M66.1,26.7v5.9h-8.2V8.9h12.2c6,0,10,3.6,10,8.9s-4.1,8.9-10.1,8.9H66.1z M66.1,14.9v5.9h2.3
					c2,0,3.3-1.2,3.3-3c0-1.8-1.3-3-3.3-3H66.1z"/>
				<path class="st2" d="M94.5,23.4v-4.6h13c0.9,8.5-4.4,14.7-12.7,14.7c-7.8,0-13.4-5.3-13.4-12.7S87.1,8.1,94.8,8.1
					c6,0,10.7,3.5,11.7,8.4l-7.8,1.3c-0.4-1.5-2-2.5-3.9-2.5c-2.8,0-4.8,2.3-4.8,5.4s2.2,5.4,5.2,5.4c2.2,0,4-1.2,4.2-2.8H94.5z"/>
				<path class="st2" d="M118.2,26.7v5.9h-8.2V8.9h12.2c6,0,10,3.6,10,8.9s-4.1,8.9-10.1,8.9H118.2z M118.2,14.9v5.9h2.3
					c2,0,3.3-1.2,3.3-3c0-1.8-1.3-3-3.3-3H118.2z"/>
				<path class="st2" d="M142.8,25.4v7.3h-8.5V8.9h17.3v7.3h-8.8v3h6.9v6.3H142.8z"/>
			</g>
		</g>
	</g>
</g>
</svg>
