<?xml version="1.0" encoding="utf-8"?>
<!-- Generator: Adobe Illustrator 24.1.0, SVG Export Plug-In . SVG Version: 6.00 Build 0)  -->
<svg version="1.1" id="OBJECTS" xmlns="http://www.w3.org/2000/svg" xmlns:xlink="http://www.w3.org/1999/xlink" x="0px" y="0px"
	 viewBox="0 0 242.7 191.6" style="enable-background:new 0 0 242.7 191.6;" xml:space="preserve">
<style type="text/css">
	.st0{fill:#F0F0F0;}
	.st1{fill:url(#SVGID_1_);}
	.st2{fill:url(#SVGID_2_);}
	.st3{fill:#00506C;}
	.st4{fill:url(#SVGID_3_);}
	.st5{fill:#00B7B2;}
	.st6{fill:#00E5D2;}
	.st7{fill:#00D4BA;}
	.st8{fill:#0047C3;}
	.st9{fill:#0088DE;}
	.st10{fill:#2CC9C4;}
	.st11{fill:#27BEF3;}
	.st12{fill:#BAE8E2;}
	.st13{fill:#E7FFFF;}
	.st14{fill:#56B5B0;}
	.st15{fill:#92C4C4;}
	.st16{opacity:0.63;}
	.st17{fill:#FFFFFF;}
	.st18{opacity:0.4;}
	.st19{fill:url(#SVGID_4_);}
</style>
<path class="st0" d="M83.6,52.1c46-15.9,80.7-85.2,134.9-29.4s9.2,140.4-56,150.4C97.2,183.2,21.6,155.9,8,111.4
	C-15.2,35.4,52.7,62.8,83.6,52.1z"/>
<linearGradient id="SVGID_1_" gradientUnits="userSpaceOnUse" x1="-1154.7291" y1="1340.5164" x2="-909.848" y2="1340.5164" gradientTransform="matrix(-0.946 -0.19 -0.189 0.945 -603.231 -1380.9741)">
	<stop  offset="0" style="stop-color:#F6C234"/>
	<stop  offset="0.489" style="stop-color:#F6C232"/>
	<stop  offset="0.665" style="stop-color:#F6C02D"/>
	<stop  offset="0.79" style="stop-color:#F5BE24"/>
	<stop  offset="0.892" style="stop-color:#F5B916"/>
	<stop  offset="0.978" style="stop-color:#FF9F05"/>
	<stop  offset="1" style="stop-color:#FF9D00"/>
</linearGradient>
<path class="st1" d="M80.3,50.7c46-15.9,80.7-85.2,134.9-29.4s9.2,140.4-56,150.4S18.3,154.6,4.7,110C-18.5,34,49.4,61.4,80.3,50.7z
	"/>
<g>
	<g>
		<linearGradient id="SVGID_2_" gradientUnits="userSpaceOnUse" x1="36.2202" y1="143.9809" x2="36.2202" y2="191.0602">
			<stop  offset="0" style="stop-color:#58B3FF"/>
			<stop  offset="1" style="stop-color:#9A79FF"/>
		</linearGradient>
		<path class="st2" d="M31.6,182.4c-2.8-0.2-5.7-1.4-7.3-3.7c-1.9-2.8-1.8-6.6-4-9.2c-3-3.7-9.9-4-10.8-8.7
			c-0.4-2.4,1.2-4.8,3.2-6.3c2-1.5,4.3-2.5,6.2-4.1c3.6-3.2,4.9-8.4,8.6-11.3c5.2-4,12.7-1.9,18.9,0.3c4,1.4,8.1,3,11.3,5.8
			c3.2,2.8,5.2,7.3,4,11.4c-0.6,1.9-1.8,3.7-1.6,5.6c0.2,1.7,1.5,3.1,2.2,4.7c2.1,4.8-1.6,10.6-6.4,12.7c-4.5,1.9-8.5,0.8-13.1,1.1
			C38.9,180.8,35.6,182.7,31.6,182.4z"/>
		<polygon class="st3" points="47,166.7 46,165.9 39.8,173.3 39.8,145.4 38.5,145.4 38.5,162.3 33,154.6 32,155.3 38.5,164.4 
			38.5,191.6 39.8,191.6 39.8,175.2 		"/>
	</g>
	<g>
		<linearGradient id="SVGID_3_" gradientUnits="userSpaceOnUse" x1="213.8644" y1="139.4592" x2="213.8644" y2="189.6159">
			<stop  offset="0" style="stop-color:#58B3FF"/>
			<stop  offset="1" style="stop-color:#9A79FF"/>
		</linearGradient>
		<path class="st4" d="M206.2,179.3c-2.7-0.9-5.3-3-5.8-5.9c-0.4-2.1,0.4-4.4-0.4-6.4c-0.7-1.8-2.5-2.9-3.8-4.3
			c-3.5-3.9-2.4-10.9,2-13.7c2.4-1.5,5.6-1.8,7.5-3.9c1.8-1.9,2.1-4.7,3.2-7.1c1.4-3.1,4.5-5.6,7.9-5.9c3.4-0.2,7,2.2,7.6,5.6
			c0.3,1.7-0.2,3.5,0.1,5.2c0.5,3.2,3.1,5.5,5.3,7.8c2.2,2.3,4.4,5.4,3.5,8.5c-0.6,2.2-2.7,3.9-2.8,6.1c-0.1,1.9,1.1,3.5,1.6,5.4
			c0.9,3.9-2.3,7.7-6.1,9.1c-3.5,1.2-7.2,0.7-10.8,0.3C212.3,179.9,209.1,180.2,206.2,179.3z"/>
		<polygon class="st3" points="221.5,156.6 220.7,155.7 215.2,161 215.2,149.8 214,149.8 214,172.9 207.4,163.6 206.4,164.3 
			214,175.1 214,191.6 215.2,191.6 215.2,162.7 		"/>
	</g>
	<g>
		<g>
			<polygon class="st5" points="58.2,151.6 58.2,153.2 108,158.7 108,151.6 			"/>
			<polygon class="st6" points="58.2,191.6 108,191.6 108,158.7 58.2,153.2 			"/>
		</g>
		<rect x="116.5" y="108.4" class="st7" width="15.7" height="7"/>
		<rect x="126.5" y="108.4" class="st5" width="5.7" height="7"/>
		<g>
			<polygon class="st8" points="66.9,115.3 138.1,115.3 159.6,151.6 88.4,151.6 			"/>
		</g>
		<g>
			<polygon class="st9" points="151.7,151.6 134.6,121.5 117.4,151.6 108,151.6 108,158.7 151.7,183 			"/>
			<polygon class="st10" points="108,158.7 108,191.6 151.7,191.6 151.7,183 			"/>
		</g>
		<rect x="132.4" y="165.2" class="st8" width="16" height="26.5"/>
		<rect x="114.4" y="161.1" class="st8" width="15.3" height="16.9"/>
		<g>
			<polygon class="st11" points="138.1,115.3 66.9,115.3 46.2,151.6 117.4,151.6 			"/>
		</g>
		<g>
			<rect x="63.3" y="160.8" class="st12" width="40.3" height="14.4"/>
			<path class="st13" d="M62.1,159.6v16.9h42.7v-16.9H62.1z M103.6,175.3H63.3v-14.4h40.3V175.3z"/>
		</g>
		<g>
			<path class="st8" d="M142.5,147c0-3.8-3.1-6.9-6.9-6.9c-3.8,0-6.9,3.1-6.9,6.9c0,3.8,3.1,6.9,6.9,6.9
				C139.3,153.9,142.5,150.8,142.5,147z"/>
			<path class="st8" d="M135.5,139c-4.4,0-8,3.6-8,8c0,4.4,3.6,8,8,8c4.4,0,8-3.6,8-8C143.5,142.6,139.9,139,135.5,139z M128.6,147
				c0-3.8,3.1-6.9,6.9-6.9c3.8,0,6.9,3.1,6.9,6.9c0,3.8-3.1,6.9-6.9,6.9C131.7,153.9,128.6,150.8,128.6,147z"/>
		</g>
		<g>
			<rect x="114.4" y="160.8" class="st14" width="12.8" height="14.4"/>
			<path class="st15" d="M113.1,159.6v16.9h15.3v-16.9H113.1z M127.2,175.3h-12.8v-14.4h12.8V175.3z"/>
		</g>
		<g>
			<path class="st14" d="M141,145.6c0-3.8-3.1-6.9-6.9-6.9c-3.8,0-6.9,3.1-6.9,6.9c0,3.8,3.1,6.9,6.9,6.9
				C137.9,152.5,141,149.4,141,145.6z"/>
			<path class="st15" d="M134.1,137.6c-4.4,0-8,3.6-8,8c0,4.4,3.6,8,8,8c4.4,0,8-3.6,8-8C142.1,141.1,138.5,137.6,134.1,137.6z
				 M127.1,145.6c0-3.8,3.1-6.9,6.9-6.9c3.8,0,6.9,3.1,6.9,6.9c0,3.8-3.1,6.9-6.9,6.9C130.3,152.5,127.1,149.4,127.1,145.6z"/>
		</g>
		<polygon class="st5" points="127.2,119.8 124.2,121 110.9,121 109,121 93,121 91.1,121 74,121 66.7,133.9 60.3,145.2 58.2,146 
			59.2,147.1 76.2,147.1 78.1,147.1 94.1,147.1 96,147.1 113.3,147.1 121.3,133.2 128.2,121 		"/>
		<g>
			<polygon class="st12" points="83.1,132 86.1,126.8 89.1,121.5 74.1,121.5 68.1,132 			"/>
			<polygon class="st12" points="67.1,133.7 61.1,144.3 76.2,144.3 79.2,139 82.2,133.7 			"/>
			<polygon class="st12" points="91.1,121.5 85.1,132 101.1,132 104,126.8 107,121.5 			"/>
			<polygon class="st12" points="109,121.5 103,132 118.3,132 124.3,121.5 			"/>
			<path class="st13" d="M127.2,119.8h-17.3H108H92h-1.9h-17l-7.4,13L58.2,146h17h1.9h16h1.9h17.3l7.9-13.9l0,0L127.2,119.8z
				 M94.1,144.3h-16l6-10.5h16L94.1,144.3z M76.2,144.3H61.1l6-10.5h15.1l-3,5.3L76.2,144.3z M89.1,121.5l-3,5.3l-3,5.3H68.1l6-10.5
				H89.1z M104,126.8l-3,5.3h-16l6-10.5h16L104,126.8z M103,132l6-10.5h15.4l-6,10.5H103z M99,139l3-5.3h15.4l-6,10.5H96L99,139z"/>
			<polygon class="st12" points="117.4,133.7 102,133.7 99,139 96,144.3 111.4,144.3 			"/>
			<polygon class="st12" points="84.1,133.7 78.1,144.3 94.1,144.3 100.1,133.7 			"/>
		</g>
		<g class="st16">
			<polygon class="st17" points="87.6,121.5 90.4,119.8 90.1,119.8 82.4,119.8 79.6,121.5 71.2,126.5 68.3,128.3 65.7,132.8 
				64.2,135.5 69.9,132 			"/>
			<polygon class="st17" points="116,133.7 98.3,144.3 95.5,146 103.4,146 112.4,146 117,137.9 120.3,132 121,130.7 			"/>
			<polygon class="st17" points="73.1,133.7 75.9,132 86.8,125.5 89.8,123.7 93.6,121.5 96.4,119.8 93.7,119.8 88.2,123.1 73.2,132 
				70.4,133.7 65.4,136.7 62.5,138.5 61.1,140.9 64.1,139.1 			"/>
			<polygon class="st17" points="86.5,132 104.1,121.5 107,119.8 105.3,119.8 102.5,121.5 85.2,131.8 82,133.7 64.3,144.3 61.4,146 
				63.1,146 66,144.3 81.4,135 			"/>
			<polygon class="st17" points="98.7,132 102.2,129.9 105.2,128.2 116.4,121.5 119.2,119.8 116.6,119.8 113.8,121.5 106.5,125.8 
				103.6,127.6 96.1,132 93.3,133.7 79.4,142 76.5,143.7 75.6,144.3 72.8,146 75.2,146 75.4,146 78.2,144.3 95.9,133.7 			"/>
		</g>
		<g class="st16">
			<polygon class="st17" points="74.4,160.8 76.5,159.6 70.2,159.6 68.1,160.8 63.3,163.7 62.1,164.4 62.1,168.2 63.3,167.4 			"/>
			<polygon class="st17" points="80.2,160.8 82.3,159.6 79.8,159.6 77.7,160.8 63.3,169.4 62.1,170.1 62.1,171.6 63.3,170.9 			"/>
			<polygon class="st17" points="92.4,159.6 91,159.6 89,160.8 64.7,175.3 62.6,176.5 64,176.5 66.1,175.3 90.3,160.8 			"/>
			<polygon class="st17" points="103.6,163.8 84.2,175.3 82.1,176.5 93.4,176.5 95.5,175.3 103.6,170.5 104.8,169.7 104.8,163 			
				"/>
		</g>
		<g class="st18">
			<path class="st17" d="M138.1,139.9l1-0.6c-0.9-0.7-1.9-1.2-3-1.5l-1.4,0.8l-7,4.2l-1.4,0.8c-0.1,0.6-0.2,1.2-0.2,1.9
				c0,0.5,0.1,1,0.1,1.4l1-0.6L138.1,139.9z"/>
			<path class="st17" d="M140.2,140.4l-0.9,0.6l-11.7,6.9l-0.9,0.6c0.1,0.3,0.3,0.7,0.5,1l0.9-0.6l11.9-7.1l0.9-0.6
				C140.6,141,140.4,140.7,140.2,140.4z"/>
		</g>
		<g class="st18">
			<polygon class="st17" points="127.2,161.6 114.4,169.3 113.1,170 113.1,171.5 114.4,170.7 127.2,163.1 128.4,162.4 128.4,160.9 
							"/>
			<polygon class="st17" points="115.5,175.3 113.5,176.5 114.8,176.5 116.9,175.3 127.2,169.2 128.4,168.4 128.4,167.6 
				127.2,168.3 			"/>
		</g>
		<g>
			<path class="st8" d="M140.9,173.4c1.2,2.2,2.3,4.5,3.3,6.7c1.3,2.9,2.4,5.9,3.4,9v-13.9C145.4,174.6,143.1,174,140.9,173.4z"/>
			<path class="st8" d="M147.6,175.2v-8.9H137c1.3,2.4,2.7,4.7,3.9,7.1C143.1,174,145.4,174.6,147.6,175.2z"/>
			<path class="st8" d="M137,166.3h-3.7v5.4c2.5,0.5,5.1,1.1,7.6,1.7C139.7,171,138.3,168.7,137,166.3z"/>
			<path class="st9" d="M140.9,173.4c-2.5-0.6-5-1.2-7.6-1.7v19.9h14.3v-2.5c-0.9-3-2.1-6-3.4-9
				C143.2,177.9,142.1,175.7,140.9,173.4z"/>
		</g>
	</g>
	<g>
		<linearGradient id="SVGID_4_" gradientUnits="userSpaceOnUse" x1="189.5763" y1="177.9366" x2="189.5763" y2="197.5389">
			<stop  offset="0" style="stop-color:#58B3FF"/>
			<stop  offset="1" style="stop-color:#9A79FF"/>
		</linearGradient>
		<path class="st19" d="M209.6,191.6h-38.6c-1.3-1.1-2.6-2.5-3.2-4c-0.7-1.5-0.6-3.4,0.4-4.8c0.8-1,1.9-1.5,2.8-2.3
			c1.3-1.2,2-2.8,2.9-4.3c0.9-1.4,2.4-2.8,4.1-2.8c1.4,0,2.6,1,3.9,1.1c2,0.2,3.7-1.3,5.6-2.2c3.1-1.5,6.8-1,10.1-0.1
			c5.2,1.5,10.2,4.3,12.9,8.9C212.5,184.5,211.9,188.6,209.6,191.6z"/>
	</g>
</g>
</svg>
